<svg width="120" height="33" viewBox="0 0 120 33" fill="none" xmlns="http://www.w3.org/2000/svg">
<path d="M11.653 32.0536C8.07037 32.0536 5.35138 30.8451 3.1076 28.6013C-0.128551 25.3648 0.000707332 21.0487 0.000707332 16.4311C0.000707332 11.8134 -0.128551 7.49751 3.1076 4.26096C5.35138 2.01717 8.07037 0.808662 11.653 0.808662C17.4785 0.808662 22.1828 4.04521 23.3047 10.8212H15.6226C15.1478 9.09446 14.1983 7.54108 11.6956 7.54108C10.3146 7.54108 9.27874 8.1021 8.7176 8.83581C8.02759 9.74183 7.55293 10.8212 7.55293 16.4311C7.55293 22.0415 8.02759 23.1205 8.7176 24.0269C9.27874 24.7605 10.3146 25.3216 11.6956 25.3216C14.1983 25.3216 15.1478 23.7677 15.6226 22.0415H23.3047C22.1828 28.8171 17.4785 32.0536 11.653 32.0536Z" fill="#20354D"/>
<path d="M38.8417 8.87855C38.2809 8.14524 37.2017 7.54105 35.8211 7.54105C34.4395 7.54105 33.3609 8.14524 32.8002 8.87855C32.109 9.78497 31.6778 10.8212 31.6778 16.431C31.6778 22.0414 32.109 23.0341 32.8002 23.9404C33.3609 24.6741 34.4395 25.3216 35.8211 25.3216C37.2017 25.3216 38.2809 24.6741 38.8417 23.9404C39.532 23.0341 39.9636 22.0414 39.9636 16.431C39.9636 10.8212 39.532 9.78497 38.8417 8.87855ZM44.4092 28.6013C42.1654 30.8451 39.5755 32.0536 35.8211 32.0536C32.0662 32.0536 29.4768 30.8451 27.233 28.6013C23.9958 25.3647 24.1253 21.0487 24.1253 16.431C24.1253 11.8134 23.9958 7.49748 27.233 4.26093C29.4768 2.01714 32.0662 0.808632 35.8211 0.808632C39.5755 0.808632 42.1654 2.01714 44.4092 4.26093C47.6457 7.49748 47.5162 11.8134 47.5162 16.431C47.5162 21.0487 47.6457 25.3647 44.4092 28.6013Z" fill="#20354D"/>
<path d="M63.0098 7.80017V31.7947H55.4576V7.80017H47.9055V1.06775H70.5619V7.80017H63.0098Z" fill="#20354D"/>
<path d="M107.547 32.0536C103.966 32.0536 101.247 30.8451 99.0025 28.6013C95.7655 25.3647 95.8952 21.0487 95.8952 16.431C95.8952 11.8134 95.7655 7.49748 99.0025 4.26093C101.247 2.01714 103.966 0.808632 107.547 0.808632C113.374 0.808632 118.077 4.04518 119.2 10.8212H111.518C111.043 9.09443 110.094 7.54105 107.591 7.54105C106.209 7.54105 105.174 8.10207 104.613 8.83578C103.922 9.7418 103.448 10.8212 103.448 16.431C103.448 22.0414 103.922 23.1204 104.613 24.0268C105.174 24.7604 106.209 25.3216 107.591 25.3216C110.094 25.3216 111.043 23.7677 111.518 22.0414H119.2C118.077 28.817 113.374 32.0536 107.547 32.0536Z" fill="#20354D"/>
<path d="M89.7163 19.4638H64.3472L69.226 12.6695H94.5951L89.7163 19.4638Z" fill="#EEB834"/>
<path d="M93.6538 31.7785H72.7506V24.2772H93.6538V31.7785Z" fill="#EEB834"/>
<path d="M93.6538 7.80414H72.7506V1.06169H93.6538V7.80414Z" fill="#EEB834"/>
</svg>
